<?xml version="1.0" standalone="no"?>
<!DOCTYPE svg PUBLIC "-//W3C//DTD SVG 20010904//EN"
 "http://www.w3.org/TR/2001/REC-SVG-20010904/DTD/svg10.dtd">
<svg version="1.0" xmlns="http://www.w3.org/2000/svg"
 width="919.000000pt" height="402.000000pt" viewBox="0 0 919.000000 402.000000"
 preserveAspectRatio="xMidYMid meet">

<g transform="translate(0.000000,402.000000) scale(0.100000,-0.100000)"
fill="#000000" stroke="none">
<path d="M0 2010 l0 -2010 4595 0 4595 0 0 2010 0 2010 -4595 0 -4595 0 0
-2010z m5115 1790 c140 -10 342 -21 700 -40 295 -15 488 -31 510 -43 30 -16
95 -69 95 -79 0 -12 -56 -10 -215 7 -176 19 -398 33 -730 45 -143 5 -361 15
-485 22 -300 16 -692 14 -980 -6 -429 -29 -489 -34 -965 -81 -234 -23 -395
-30 -395 -17 0 24 42 81 68 90 36 14 64 16 607 47 143 9 278 17 300 20 22 2
107 7 190 10 82 4 152 8 156 10 3 3 113 7 243 11 l237 7 26 -24 c26 -24 26
-24 21 -2 -6 21 -3 22 66 25 177 7 423 6 551 -2z m791 -353 c1 -12 3 -265 3
-563 l1 -541 98 19 c95 19 182 35 232 42 62 10 189 27 230 31 25 3 52 7 60 10
15 5 204 26 275 30 22 2 45 4 50 6 47 12 465 17 535 5 l55 -9 -27 34 c-14 19
-44 71 -65 114 -22 44 -52 99 -67 123 -44 70 -25 70 29 0 27 -34 57 -71 67
-81 10 -10 36 -41 58 -70 112 -147 145 -185 212 -251 178 -174 228 -205 431
-261 311 -87 460 -132 502 -150 17 -7 83 -34 149 -60 130 -51 240 -107 326
-166 92 -61 108 -97 19 -41 -24 15 -62 36 -84 46 -22 10 -58 26 -80 36 -22 10
-58 24 -80 31 -22 8 -42 17 -45 20 -5 6 -174 61 -200 65 -8 1 -40 10 -70 19
-85 25 -212 57 -241 59 -14 2 -30 5 -35 8 -5 2 -31 4 -59 3 -27 -1 -63 2 -80
6 -16 5 -62 10 -102 13 -78 5 -105 15 -144 56 -59 61 -189 140 -233 140 -14 1
-37 24 -71 72 -95 135 -113 157 -118 152 -7 -8 15 -68 51 -140 44 -88 57 -136
42 -163 -17 -32 -89 -118 -91 -110 -4 11 -9 62 -13 134 -6 112 -15 137 -56
157 -57 28 -144 31 -801 33 -345 1 -634 5 -643 8 -14 6 -16 -4 -17 -66 -1 -40
-4 -337 -8 -662 l-6 -590 -24 -35 c-13 -19 -29 -39 -36 -45 -30 -25 -196 -240
-188 -242 5 -2 60 26 123 62 63 36 139 77 169 92 l54 27 446 6 c245 4 450 4
454 0 10 -9 11 -696 1 -712 -5 -8 -147 -9 -563 -3 -461 6 -738 16 -673 23 9 2
11 11 7 35 -4 17 -10 70 -15 117 -13 126 -19 178 -31 253 -13 78 -1 69 -154
117 -55 17 -107 33 -115 37 -8 3 -28 7 -43 9 -16 2 -48 15 -72 29 l-43 25 -7
430 c-4 237 -4 664 0 949 l7 519 56 63 c30 35 85 98 122 139 37 41 143 161
235 265 93 105 195 220 228 258 33 37 63 65 65 62 3 -3 6 -15 8 -28z m-3842
-419 c-92 -151 -345 -528 -354 -528 -6 0 -10 9 -10 21 0 22 43 88 154 240 39
52 100 137 136 187 36 50 69 92 73 92 5 0 5 -6 1 -12z m5554 -149 c26 -7 53
-17 60 -22 8 -6 28 -10 45 -9 18 2 48 -4 67 -12 19 -8 66 -26 103 -40 108 -41
187 -79 187 -88 0 -4 -35 -8 -78 -8 -59 0 -97 7 -153 26 -108 38 -209 55 -339
58 -115 3 -115 3 -132 32 -10 16 -18 39 -18 52 0 21 3 22 106 22 58 0 126 -5
152 -11z m-5815 -75 c8 -8 -13 -65 -32 -88 -13 -14 -25 -17 -61 -13 -55 7
-247 -9 -275 -23 -11 -5 -61 -21 -112 -35 -93 -25 -142 -29 -223 -17 l-45 7
65 22 c36 12 104 38 153 58 48 20 97 37 110 38 12 2 33 9 47 17 14 8 54 20 90
26 68 13 272 18 283 8z m2430 -504 c50 -58 98 -113 106 -123 13 -16 13 -19 1
-27 -8 -5 -11 -12 -7 -17 5 -4 12 -1 17 7 10 16 37 -6 138 -113 25 -26 49 -46
53 -45 7 3 58 60 362 406 49 56 93 102 98 102 11 0 10 -345 -2 -560 -5 -91
-10 -181 -11 -200 0 -19 -3 -27 -5 -17 -5 17 -23 24 -23 8 0 -8 -20 -14 -81
-24 -8 -2 -29 -13 -47 -25 -17 -13 -46 -28 -64 -34 -18 -7 -53 -24 -77 -40
-25 -15 -54 -28 -66 -28 -12 0 -36 -11 -55 -25 -19 -14 -42 -25 -53 -25 -10 0
-21 -9 -24 -20 -4 -15 -11 -18 -27 -14 -14 3 -28 -1 -35 -10 -8 -9 -21 -16
-30 -16 -10 0 -38 -13 -64 -30 -26 -16 -57 -30 -68 -30 -11 0 -30 -9 -41 -20
-12 -11 -24 -16 -27 -12 -3 4 -19 18 -36 30 -49 38 -224 214 -230 233 -7 21
-35 33 -48 20 -5 -5 -5 -73 2 -177 8 -131 8 -180 -2 -219 -6 -27 -16 -50 -22
-51 -14 -1 -36 -11 -173 -76 -68 -32 -125 -58 -127 -58 -2 0 -47 -21 -100 -46
-53 -25 -99 -43 -102 -41 -5 6 7 59 47 197 12 41 25 91 30 110 4 19 17 69 29
110 12 41 23 87 26 103 2 15 7 32 10 37 3 5 12 42 19 82 8 40 23 96 34 123 20
49 46 147 63 232 5 24 18 62 29 85 11 24 23 72 25 107 3 35 10 70 15 77 27 31
88 274 75 294 -3 5 2 10 10 14 9 3 15 18 15 34 0 16 9 37 19 46 21 19 22 67 2
74 -6 2 -11 -1 -11 -7 0 -6 -5 -11 -11 -11 -8 0 -8 4 1 15 6 8 9 23 5 36 -9
27 314 -298 438 -441z m3783 225 c-9 -34 -66 -127 -88 -143 -10 -7 -18 -19
-18 -27 0 -7 -14 -25 -32 -40 -27 -22 -39 -26 -71 -22 -36 5 -56 19 -57 40 0
11 55 64 98 92 20 14 64 47 97 75 33 27 64 49 69 50 4 0 5 -11 2 -25z m-6328
-62 c4 -29 15 -31 107 -21 87 9 327 3 500 -13 238 -22 834 -115 866 -135 5 -3
6 -10 3 -16 -4 -7 -130 -7 -398 -2 -451 10 -507 11 -751 4 l-180 -5 -34 47
c-20 26 -37 45 -39 43 -2 -2 4 -25 14 -51 l18 -47 -24 -16 c-49 -32 -57 -47
-64 -117 -13 -136 -18 -164 -30 -164 -6 0 -47 34 -89 75 -68 66 -81 74 -105
69 -55 -13 -132 -57 -189 -108 -77 -70 -85 -74 -189 -81 -316 -23 -568 -81
-851 -196 -86 -34 -94 -36 -60 -9 68 54 312 151 562 225 517 152 458 129 590
229 44 33 134 118 200 188 66 70 125 125 130 124 6 -1 11 -12 13 -23z m-448
-90 c0 -7 6 -13 14 -13 21 0 31 -21 15 -32 -10 -7 -7 -8 12 -4 44 10 138 -73
98 -86 -55 -18 -136 40 -184 131 -23 45 -19 54 15 34 17 -9 30 -23 30 -30z
m7633 -765 c9 -24 21 -67 27 -96 5 -30 12 -58 15 -62 13 -21 21 -239 12 -325
-17 -156 -26 -201 -63 -316 -30 -92 -50 -114 -96 -105 -18 3 -51 8 -73 9 -63
6 -298 39 -315 45 -8 3 -19 4 -24 3 -5 -1 -36 5 -70 13 -99 24 -186 29 -272
16 -43 -7 -83 -16 -89 -20 -5 -4 -80 -24 -165 -45 -85 -21 -162 -40 -170 -43
-8 -3 -18 -5 -22 -4 -4 1 -35 -7 -70 -17 -35 -11 -80 -22 -102 -26 -21 -3 -46
-10 -55 -15 -9 -5 -70 -20 -136 -35 -66 -14 -147 -32 -180 -40 -70 -17 -105
-19 -105 -6 0 5 15 13 33 16 17 4 37 11 42 15 6 4 21 10 35 13 24 5 81 24 415
142 88 31 167 57 175 58 8 1 17 4 20 7 10 11 188 61 224 63 20 1 36 5 36 9 0
19 165 72 184 60 6 -4 20 -7 31 -8 41 -1 341 -45 377 -55 21 -5 48 -7 61 -4
12 3 35 1 51 -5 16 -6 49 -8 77 -4 45 6 51 10 75 53 45 80 81 217 94 361 12
126 11 343 0 354 -12 12 -13 36 -1 36 4 0 16 -19 24 -42z m-171 -24 c4 -3 -8
-42 -24 -87 -17 -45 -45 -124 -64 -176 -18 -52 -38 -99 -44 -105 -6 -6 -146
-13 -362 -17 -310 -6 -355 -5 -370 9 -17 14 -18 13 -18 -10 0 -22 -7 -27 -57
-41 -32 -9 -150 -35 -263 -58 -113 -22 -279 -56 -370 -75 -91 -19 -181 -37
-200 -40 l-35 -5 30 15 c54 28 679 242 805 275 41 11 91 25 110 31 19 6 67 17
105 25 231 48 315 64 360 70 58 8 81 22 147 83 37 34 70 52 141 78 103 37 102
36 109 28z m-8436 -136 c-11 -40 -10 -429 1 -436 6 -4 14 -34 18 -67 4 -33 10
-64 15 -70 4 -5 10 -23 14 -40 9 -36 62 -144 81 -163 10 -11 30 -12 106 -3 52
7 110 13 129 16 44 4 107 14 140 20 14 3 52 7 85 11 33 3 89 12 124 20 74 17
128 10 136 -16 8 -24 35 -34 35 -14 0 19 2 18 120 -26 116 -43 462 -161 665
-227 44 -14 89 -29 100 -33 11 -4 80 -27 154 -51 159 -52 151 -64 -11 -20
-139 38 -175 47 -258 65 -36 8 -108 26 -160 41 -52 14 -147 37 -210 51 -63 13
-126 28 -140 33 -14 5 -40 10 -59 10 -19 0 -46 4 -60 10 -14 5 -38 12 -53 15
-16 4 -28 13 -28 20 0 8 -7 17 -16 20 -11 4 -15 2 -11 -8 5 -12 -3 -14 -41
-10 -25 3 -49 8 -52 12 -16 21 -335 -14 -449 -50 -18 -5 -63 -12 -100 -15 -36
-3 -104 -9 -151 -12 -47 -4 -90 -3 -97 2 -6 5 -28 57 -47 115 -32 97 -44 151
-52 237 -1 17 -3 30 -3 30 -1 0 -3 62 -4 138 -2 93 0 137 8 137 6 0 11 28 12
73 1 76 36 207 55 207 6 0 8 -9 4 -22z m307 -92 c20 -8 64 -38 98 -66 34 -28
72 -56 85 -60 12 -5 89 -20 171 -34 173 -30 239 -45 423 -98 231 -66 321 -95
455 -143 72 -26 184 -65 250 -88 130 -46 128 -61 -6 -32 -41 9 -130 27 -199
40 -69 14 -143 29 -165 35 -22 5 -80 19 -130 30 -114 27 -146 42 -168 81 -21
38 -33 32 -19 -10 10 -30 10 -31 -16 -31 -15 1 -70 10 -122 21 -80 18 -141 22
-387 26 -203 3 -295 9 -301 16 -10 12 -74 177 -112 284 -11 35 -19 67 -16 72
6 9 90 -14 159 -43z m-396 -313 c-3 -10 -5 -4 -5 12 0 17 2 24 5 18 2 -7 2
-21 0 -30z m2999 -495 c-4 -24 -21 -99 -38 -167 -33 -132 -32 -141 20 -141 17
0 26 8 33 30 11 29 13 30 75 30 60 0 64 -1 64 -22 -1 -39 -21 -112 -33 -120
-7 -4 -71 -8 -144 -8 -124 0 -134 1 -159 23 -34 29 -34 52 0 186 32 126 32
139 4 143 -20 3 -22 8 -20 38 2 19 6 38 9 43 2 4 47 7 100 7 l96 0 -7 -42z
m397 35 c3 -5 -10 -77 -29 -162 -19 -85 -33 -160 -30 -168 6 -14 44 -17 62 -5
15 9 21 30 50 169 32 158 40 173 84 172 78 -2 78 -3 63 -104 -16 -115 -43
-232 -60 -267 -21 -44 -51 -56 -155 -64 -120 -8 -163 -1 -185 32 -15 24 -15
31 6 122 12 53 26 113 32 133 13 52 12 57 -13 61 -19 2 -22 8 -20 33 5 55 6
55 101 55 49 0 92 -3 94 -7z m603 -25 c-4 -18 -14 -71 -22 -118 -8 -47 -21
-105 -29 -129 -8 -25 -15 -55 -15 -68 0 -12 -13 -37 -29 -55 l-30 -33 -116 3
c-161 4 -191 22 -175 107 5 30 6 30 73 33 l69 3 -7 -31 c-6 -29 -5 -30 28 -30
19 0 39 6 44 13 17 22 65 232 55 242 -3 3 -18 5 -33 5 -42 0 -59 10 -59 35 0
54 3 55 132 55 l121 0 -7 -32z m419 16 c26 -19 24 -58 -9 -209 -35 -157 -33
-152 -64 -180 -25 -24 -33 -25 -150 -25 -119 0 -124 1 -149 26 -23 23 -25 31
-19 74 6 42 35 170 51 221 4 11 -2 19 -18 23 -20 5 -22 10 -19 40 4 33 7 35
46 39 22 2 102 4 176 5 106 1 139 -2 155 -14z m475 -3 c0 -11 -5 -42 -12 -70
l-11 -51 -64 0 c-61 0 -63 1 -63 26 0 23 -3 25 -42 22 -37 -3 -43 -7 -49 -32
-5 -16 -6 -33 -3 -38 3 -4 40 -8 83 -8 103 0 117 -13 107 -101 -8 -71 -22
-106 -53 -136 -31 -29 -65 -35 -208 -31 -137 3 -134 1 -115 93 l12 56 66 -3
c64 -3 67 -4 67 -28 0 -19 6 -26 25 -28 34 -4 58 17 62 53 l3 30 -80 3 c-112
4 -134 32 -105 130 8 31 7 34 -20 43 -25 9 -27 13 -20 39 5 16 11 34 15 40 4
6 79 10 206 10 190 0 199 -1 199 -19z"/>
<path d="M8905 1300 c-3 -5 -1 -18 4 -27 9 -16 10 -14 11 10 0 28 -5 34 -15
17z"/>
<path d="M241 1144 c0 -11 3 -14 6 -6 3 7 2 16 -1 19 -3 4 -6 -2 -5 -13z"/>
<path d="M4368 378 c-14 -68 -24 -126 -22 -130 7 -10 45 -10 61 0 13 8 74 232
66 245 -2 4 -21 7 -41 7 l-37 0 -27 -122z"/>
</g>
</svg>
